<mxfile host="app.diagrams.net" modified="2022-12-03T12:32:04.808Z" agent="5.0 (Windows NT 10.0; Win64; x64) AppleWebKit/537.36 (KHTML, like Gecko) Chrome/108.0.0.0 Safari/537.36" version="20.6.0" etag="WJF2eCfo6JxuIAJAkC2u" type="github">
  <diagram id="JxD62zQMPcQQRzalUXe-" name="Page-1">
    <mxGraphModel dx="1343" dy="847" grid="1" gridSize="10" guides="1" tooltips="1" connect="1" arrows="1" fold="1" page="1" pageScale="1" pageWidth="827" pageHeight="1169" math="0" shadow="0">
      <root>
        <mxCell id="0" />
        <mxCell id="1" parent="0" />
        <mxCell id="s6YdlJrknY9Fd6n3SQEG-211" style="edgeStyle=none;rounded=0;orthogonalLoop=1;jettySize=auto;html=1;exitX=0;exitY=1;exitDx=0;exitDy=0;entryX=0;entryY=1;entryDx=0;entryDy=0;dashed=1;fontFamily=Times New Roman;fontSize=20;startArrow=none;startFill=0;endArrow=none;endFill=0;elbow=vertical;" edge="1" parent="1" source="s6YdlJrknY9Fd6n3SQEG-173" target="s6YdlJrknY9Fd6n3SQEG-208">
          <mxGeometry relative="1" as="geometry" />
        </mxCell>
        <mxCell id="s6YdlJrknY9Fd6n3SQEG-208" value="" style="rounded=0;whiteSpace=wrap;html=1;fontFamily=Times New Roman;fontSize=20;fillColor=#E6E6E6;strokeColor=#000000;" vertex="1" parent="1">
          <mxGeometry x="415" y="500" width="650" height="380" as="geometry" />
        </mxCell>
        <mxCell id="s6YdlJrknY9Fd6n3SQEG-183" value="" style="rounded=1;whiteSpace=wrap;html=1;fontFamily=Times New Roman;fontSize=20;fillColor=#FFFFFF;dashed=1;" vertex="1" parent="1">
          <mxGeometry x="280" y="190" width="950" height="60" as="geometry" />
        </mxCell>
        <mxCell id="s6YdlJrknY9Fd6n3SQEG-184" value="" style="rounded=1;whiteSpace=wrap;html=1;fontFamily=Times New Roman;fontSize=20;fillColor=#FFFFFF;dashed=1;" vertex="1" parent="1">
          <mxGeometry x="280" y="270" width="950" height="60" as="geometry" />
        </mxCell>
        <mxCell id="s6YdlJrknY9Fd6n3SQEG-185" value="" style="rounded=1;whiteSpace=wrap;html=1;fontFamily=Times New Roman;fontSize=20;fillColor=#FFFFFF;dashed=1;" vertex="1" parent="1">
          <mxGeometry x="280" y="390" width="950" height="60" as="geometry" />
        </mxCell>
        <mxCell id="s6YdlJrknY9Fd6n3SQEG-182" value="" style="rounded=1;whiteSpace=wrap;html=1;fontFamily=Times New Roman;fontSize=20;fillColor=#FFFFFF;dashed=1;" vertex="1" parent="1">
          <mxGeometry x="280" y="110" width="950" height="60" as="geometry" />
        </mxCell>
        <mxCell id="s6YdlJrknY9Fd6n3SQEG-24" style="edgeStyle=none;orthogonalLoop=1;jettySize=auto;html=1;exitX=0.5;exitY=0;exitDx=0;exitDy=0;entryX=0.5;entryY=0;entryDx=0;entryDy=0;fontFamily=Times New Roman;fontSize=20;startArrow=none;startFill=0;endArrow=classic;endFill=1;curved=1;" edge="1" parent="1" source="s6YdlJrknY9Fd6n3SQEG-15">
          <mxGeometry relative="1" as="geometry">
            <mxPoint x="30" y="640" as="targetPoint" />
            <Array as="points">
              <mxPoint x="360" y="400" />
            </Array>
          </mxGeometry>
        </mxCell>
        <mxCell id="s6YdlJrknY9Fd6n3SQEG-165" style="edgeStyle=none;rounded=0;orthogonalLoop=1;jettySize=auto;html=1;exitX=1;exitY=0.75;exitDx=0;exitDy=0;entryX=0;entryY=0.25;entryDx=0;entryDy=0;fontFamily=Times New Roman;fontSize=20;startArrow=none;startFill=0;endArrow=classic;endFill=1;elbow=vertical;" edge="1" parent="1" source="s6YdlJrknY9Fd6n3SQEG-158" target="s6YdlJrknY9Fd6n3SQEG-162">
          <mxGeometry relative="1" as="geometry" />
        </mxCell>
        <mxCell id="s6YdlJrknY9Fd6n3SQEG-158" value="MPI_Isend" style="rounded=0;whiteSpace=wrap;html=1;fontFamily=Times New Roman;fontSize=20;fillColor=#FFFFFF;" vertex="1" parent="1">
          <mxGeometry x="440" y="120" width="120" height="40" as="geometry" />
        </mxCell>
        <mxCell id="s6YdlJrknY9Fd6n3SQEG-178" style="edgeStyle=none;rounded=0;orthogonalLoop=1;jettySize=auto;html=1;exitX=1;exitY=0.5;exitDx=0;exitDy=0;entryX=0;entryY=0.5;entryDx=0;entryDy=0;fontFamily=Times New Roman;fontSize=20;startArrow=none;startFill=0;endArrow=classic;endFill=1;elbow=vertical;" edge="1" parent="1" source="s6YdlJrknY9Fd6n3SQEG-159" target="s6YdlJrknY9Fd6n3SQEG-160">
          <mxGeometry relative="1" as="geometry" />
        </mxCell>
        <mxCell id="s6YdlJrknY9Fd6n3SQEG-159" value="MPI_Recv" style="rounded=0;whiteSpace=wrap;html=1;fontFamily=Times New Roman;fontSize=20;fillColor=#FFFFFF;" vertex="1" parent="1">
          <mxGeometry x="640" y="120" width="120" height="40" as="geometry" />
        </mxCell>
        <mxCell id="s6YdlJrknY9Fd6n3SQEG-160" value="Process Work of P&lt;sub&gt;0&lt;/sub&gt;" style="rounded=0;whiteSpace=wrap;html=1;fontFamily=Times New Roman;fontSize=20;fillColor=#E6E6E6;" vertex="1" parent="1">
          <mxGeometry x="840" y="110" width="240" height="60" as="geometry" />
        </mxCell>
        <mxCell id="s6YdlJrknY9Fd6n3SQEG-164" style="edgeStyle=none;rounded=0;orthogonalLoop=1;jettySize=auto;html=1;exitX=1;exitY=0.25;exitDx=0;exitDy=0;entryX=0;entryY=0.75;entryDx=0;entryDy=0;fontFamily=Times New Roman;fontSize=20;startArrow=none;startFill=0;endArrow=classic;endFill=1;elbow=vertical;" edge="1" parent="1" source="s6YdlJrknY9Fd6n3SQEG-161" target="s6YdlJrknY9Fd6n3SQEG-159">
          <mxGeometry relative="1" as="geometry" />
        </mxCell>
        <mxCell id="s6YdlJrknY9Fd6n3SQEG-175" style="edgeStyle=none;rounded=0;orthogonalLoop=1;jettySize=auto;html=1;exitX=1;exitY=0.75;exitDx=0;exitDy=0;entryX=0;entryY=0.25;entryDx=0;entryDy=0;fontFamily=Times New Roman;fontSize=20;startArrow=none;startFill=0;endArrow=classic;endFill=1;elbow=vertical;" edge="1" parent="1" source="s6YdlJrknY9Fd6n3SQEG-161" target="s6YdlJrknY9Fd6n3SQEG-168">
          <mxGeometry relative="1" as="geometry" />
        </mxCell>
        <mxCell id="s6YdlJrknY9Fd6n3SQEG-161" value="MPI_Isend" style="rounded=0;whiteSpace=wrap;html=1;fontFamily=Times New Roman;fontSize=20;fillColor=#FFFFFF;" vertex="1" parent="1">
          <mxGeometry x="440" y="200" width="120" height="40" as="geometry" />
        </mxCell>
        <mxCell id="s6YdlJrknY9Fd6n3SQEG-179" style="edgeStyle=none;rounded=0;orthogonalLoop=1;jettySize=auto;html=1;exitX=1;exitY=0.5;exitDx=0;exitDy=0;entryX=0;entryY=0.5;entryDx=0;entryDy=0;fontFamily=Times New Roman;fontSize=20;startArrow=none;startFill=0;endArrow=classic;endFill=1;elbow=vertical;" edge="1" parent="1" source="s6YdlJrknY9Fd6n3SQEG-162" target="s6YdlJrknY9Fd6n3SQEG-163">
          <mxGeometry relative="1" as="geometry" />
        </mxCell>
        <mxCell id="s6YdlJrknY9Fd6n3SQEG-162" value="MPI_Recv" style="rounded=0;whiteSpace=wrap;html=1;fontFamily=Times New Roman;fontSize=20;fillColor=#FFFFFF;" vertex="1" parent="1">
          <mxGeometry x="640" y="200" width="120" height="40" as="geometry" />
        </mxCell>
        <mxCell id="s6YdlJrknY9Fd6n3SQEG-163" value="Process Work of P&lt;sub&gt;1&lt;/sub&gt;" style="rounded=0;whiteSpace=wrap;html=1;fontFamily=Times New Roman;fontSize=20;fillColor=#E6E6E6;" vertex="1" parent="1">
          <mxGeometry x="840" y="190" width="240" height="60" as="geometry" />
        </mxCell>
        <mxCell id="s6YdlJrknY9Fd6n3SQEG-166" style="edgeStyle=none;rounded=0;orthogonalLoop=1;jettySize=auto;html=1;exitX=1;exitY=0.75;exitDx=0;exitDy=0;fontFamily=Times New Roman;fontSize=20;startArrow=none;startFill=0;endArrow=none;endFill=0;elbow=vertical;" edge="1" parent="1" source="s6YdlJrknY9Fd6n3SQEG-167">
          <mxGeometry relative="1" as="geometry">
            <mxPoint x="580" y="330" as="targetPoint" />
          </mxGeometry>
        </mxCell>
        <mxCell id="s6YdlJrknY9Fd6n3SQEG-174" style="edgeStyle=none;rounded=0;orthogonalLoop=1;jettySize=auto;html=1;exitX=1;exitY=0.25;exitDx=0;exitDy=0;entryX=0;entryY=0.75;entryDx=0;entryDy=0;fontFamily=Times New Roman;fontSize=20;startArrow=none;startFill=0;endArrow=classic;endFill=1;elbow=vertical;" edge="1" parent="1" source="s6YdlJrknY9Fd6n3SQEG-167" target="s6YdlJrknY9Fd6n3SQEG-162">
          <mxGeometry relative="1" as="geometry" />
        </mxCell>
        <mxCell id="s6YdlJrknY9Fd6n3SQEG-177" style="edgeStyle=none;rounded=0;orthogonalLoop=1;jettySize=auto;html=1;entryX=0;entryY=0.25;entryDx=0;entryDy=0;fontFamily=Times New Roman;fontSize=20;startArrow=none;startFill=0;endArrow=classic;endFill=1;elbow=vertical;" edge="1" parent="1" target="s6YdlJrknY9Fd6n3SQEG-172">
          <mxGeometry relative="1" as="geometry">
            <mxPoint x="620" y="390" as="sourcePoint" />
          </mxGeometry>
        </mxCell>
        <mxCell id="s6YdlJrknY9Fd6n3SQEG-167" value="MPI_Isend" style="rounded=0;whiteSpace=wrap;html=1;fontFamily=Times New Roman;fontSize=20;fillColor=#FFFFFF;" vertex="1" parent="1">
          <mxGeometry x="440" y="280" width="120" height="40" as="geometry" />
        </mxCell>
        <mxCell id="s6YdlJrknY9Fd6n3SQEG-180" style="edgeStyle=none;rounded=0;orthogonalLoop=1;jettySize=auto;html=1;exitX=1;exitY=0.5;exitDx=0;exitDy=0;entryX=0;entryY=0.5;entryDx=0;entryDy=0;fontFamily=Times New Roman;fontSize=20;startArrow=none;startFill=0;endArrow=classic;endFill=1;elbow=vertical;" edge="1" parent="1" source="s6YdlJrknY9Fd6n3SQEG-168" target="s6YdlJrknY9Fd6n3SQEG-169">
          <mxGeometry relative="1" as="geometry" />
        </mxCell>
        <mxCell id="s6YdlJrknY9Fd6n3SQEG-168" value="MPI_Recv" style="rounded=0;whiteSpace=wrap;html=1;fontFamily=Times New Roman;fontSize=20;fillColor=#FFFFFF;" vertex="1" parent="1">
          <mxGeometry x="640" y="280" width="120" height="40" as="geometry" />
        </mxCell>
        <mxCell id="s6YdlJrknY9Fd6n3SQEG-169" value="Process Work of P&lt;sub&gt;2&lt;/sub&gt;" style="rounded=0;whiteSpace=wrap;html=1;fontFamily=Times New Roman;fontSize=20;fillColor=#E6E6E6;" vertex="1" parent="1">
          <mxGeometry x="840" y="270" width="240" height="60" as="geometry" />
        </mxCell>
        <mxCell id="s6YdlJrknY9Fd6n3SQEG-170" style="edgeStyle=none;rounded=0;orthogonalLoop=1;jettySize=auto;html=1;entryX=0;entryY=0.75;entryDx=0;entryDy=0;fontFamily=Times New Roman;fontSize=20;startArrow=none;startFill=0;endArrow=classic;endFill=1;elbow=vertical;" edge="1" parent="1" target="s6YdlJrknY9Fd6n3SQEG-168">
          <mxGeometry relative="1" as="geometry">
            <mxPoint x="620" y="330" as="sourcePoint" />
          </mxGeometry>
        </mxCell>
        <mxCell id="s6YdlJrknY9Fd6n3SQEG-176" style="edgeStyle=none;rounded=0;orthogonalLoop=1;jettySize=auto;html=1;exitX=1;exitY=0.25;exitDx=0;exitDy=0;fontFamily=Times New Roman;fontSize=20;startArrow=none;startFill=0;endArrow=none;endFill=0;elbow=vertical;" edge="1" parent="1" source="s6YdlJrknY9Fd6n3SQEG-171">
          <mxGeometry relative="1" as="geometry">
            <mxPoint x="580" y="390" as="targetPoint" />
          </mxGeometry>
        </mxCell>
        <mxCell id="s6YdlJrknY9Fd6n3SQEG-171" value="MPI_Isend" style="rounded=0;whiteSpace=wrap;html=1;fontFamily=Times New Roman;fontSize=20;fillColor=#FFFFFF;" vertex="1" parent="1">
          <mxGeometry x="440" y="400" width="120" height="40" as="geometry" />
        </mxCell>
        <mxCell id="s6YdlJrknY9Fd6n3SQEG-181" style="edgeStyle=none;rounded=0;orthogonalLoop=1;jettySize=auto;html=1;exitX=1;exitY=0.5;exitDx=0;exitDy=0;fontFamily=Times New Roman;fontSize=20;startArrow=none;startFill=0;endArrow=classic;endFill=1;elbow=vertical;" edge="1" parent="1" source="s6YdlJrknY9Fd6n3SQEG-172" target="s6YdlJrknY9Fd6n3SQEG-173">
          <mxGeometry relative="1" as="geometry" />
        </mxCell>
        <mxCell id="s6YdlJrknY9Fd6n3SQEG-172" value="MPI_Recv" style="rounded=0;whiteSpace=wrap;html=1;fontFamily=Times New Roman;fontSize=20;fillColor=#FFFFFF;" vertex="1" parent="1">
          <mxGeometry x="640" y="400" width="120" height="40" as="geometry" />
        </mxCell>
        <mxCell id="s6YdlJrknY9Fd6n3SQEG-209" style="edgeStyle=none;rounded=0;orthogonalLoop=1;jettySize=auto;html=1;exitX=0;exitY=0;exitDx=0;exitDy=0;entryX=0;entryY=0;entryDx=0;entryDy=0;fontFamily=Times New Roman;fontSize=20;startArrow=none;startFill=0;endArrow=none;endFill=0;elbow=vertical;dashed=1;" edge="1" parent="1" source="s6YdlJrknY9Fd6n3SQEG-173" target="s6YdlJrknY9Fd6n3SQEG-208">
          <mxGeometry relative="1" as="geometry" />
        </mxCell>
        <mxCell id="s6YdlJrknY9Fd6n3SQEG-212" style="edgeStyle=none;rounded=0;orthogonalLoop=1;jettySize=auto;html=1;exitX=1;exitY=1;exitDx=0;exitDy=0;entryX=1;entryY=1;entryDx=0;entryDy=0;dashed=1;fontFamily=Times New Roman;fontSize=20;startArrow=none;startFill=0;endArrow=none;endFill=0;elbow=vertical;" edge="1" parent="1" source="s6YdlJrknY9Fd6n3SQEG-173" target="s6YdlJrknY9Fd6n3SQEG-208">
          <mxGeometry relative="1" as="geometry" />
        </mxCell>
        <mxCell id="s6YdlJrknY9Fd6n3SQEG-173" value="Process Work of P&lt;sub&gt;N&lt;/sub&gt;" style="rounded=0;whiteSpace=wrap;html=1;fontFamily=Times New Roman;fontSize=20;fillColor=#E6E6E6;" vertex="1" parent="1">
          <mxGeometry x="840" y="390" width="240" height="60" as="geometry" />
        </mxCell>
        <mxCell id="s6YdlJrknY9Fd6n3SQEG-186" style="edgeStyle=orthogonalEdgeStyle;rounded=0;orthogonalLoop=1;jettySize=auto;html=1;exitX=1;exitY=0.5;exitDx=0;exitDy=0;entryX=0;entryY=0.5;entryDx=0;entryDy=0;fontFamily=Times New Roman;fontSize=20;" edge="1" source="s6YdlJrknY9Fd6n3SQEG-188" target="s6YdlJrknY9Fd6n3SQEG-190" parent="1">
          <mxGeometry relative="1" as="geometry" />
        </mxCell>
        <mxCell id="s6YdlJrknY9Fd6n3SQEG-187" style="rounded=0;orthogonalLoop=1;jettySize=auto;html=1;exitX=0;exitY=0.5;exitDx=0;exitDy=0;entryX=0.954;entryY=0.284;entryDx=0;entryDy=0;entryPerimeter=0;fontFamily=Times New Roman;fontSize=20;endArrow=none;endFill=0;startArrow=classic;startFill=1;" edge="1" source="s6YdlJrknY9Fd6n3SQEG-188" target="s6YdlJrknY9Fd6n3SQEG-203" parent="1">
          <mxGeometry relative="1" as="geometry" />
        </mxCell>
        <mxCell id="s6YdlJrknY9Fd6n3SQEG-188" value="T&lt;sub style=&quot;font-size: 20px;&quot;&gt;0&lt;/sub&gt;" style="ellipse;whiteSpace=wrap;html=1;aspect=fixed;fontFamily=Times New Roman;fontSize=20;" vertex="1" parent="1">
          <mxGeometry x="610" y="550" width="80" height="80" as="geometry" />
        </mxCell>
        <mxCell id="s6YdlJrknY9Fd6n3SQEG-189" style="rounded=0;orthogonalLoop=1;jettySize=auto;html=1;exitX=1;exitY=0.5;exitDx=0;exitDy=0;entryX=0.058;entryY=0.279;entryDx=0;entryDy=0;entryPerimeter=0;fontFamily=Times New Roman;fontSize=20;" edge="1" source="s6YdlJrknY9Fd6n3SQEG-190" target="s6YdlJrknY9Fd6n3SQEG-204" parent="1">
          <mxGeometry relative="1" as="geometry" />
        </mxCell>
        <mxCell id="s6YdlJrknY9Fd6n3SQEG-190" value="Jacobi Integral" style="rounded=0;whiteSpace=wrap;html=1;fontFamily=Times New Roman;fontSize=20;fillColor=#E6E6E6;" vertex="1" parent="1">
          <mxGeometry x="730" y="560" width="160" height="60" as="geometry" />
        </mxCell>
        <mxCell id="s6YdlJrknY9Fd6n3SQEG-191" style="edgeStyle=orthogonalEdgeStyle;rounded=0;orthogonalLoop=1;jettySize=auto;html=1;exitX=1;exitY=0.5;exitDx=0;exitDy=0;entryX=0;entryY=0.5;entryDx=0;entryDy=0;fontFamily=Times New Roman;fontSize=20;" edge="1" source="s6YdlJrknY9Fd6n3SQEG-193" target="s6YdlJrknY9Fd6n3SQEG-195" parent="1">
          <mxGeometry relative="1" as="geometry" />
        </mxCell>
        <mxCell id="s6YdlJrknY9Fd6n3SQEG-192" style="rounded=0;orthogonalLoop=1;jettySize=auto;html=1;exitX=0;exitY=0.5;exitDx=0;exitDy=0;entryX=0.989;entryY=0.42;entryDx=0;entryDy=0;entryPerimeter=0;fontFamily=Times New Roman;fontSize=20;endArrow=none;endFill=0;startArrow=classic;startFill=1;" edge="1" source="s6YdlJrknY9Fd6n3SQEG-193" target="s6YdlJrknY9Fd6n3SQEG-203" parent="1">
          <mxGeometry relative="1" as="geometry" />
        </mxCell>
        <mxCell id="s6YdlJrknY9Fd6n3SQEG-193" value="T&lt;sub style=&quot;font-size: 20px;&quot;&gt;1&lt;/sub&gt;" style="ellipse;whiteSpace=wrap;html=1;aspect=fixed;fontFamily=Times New Roman;fontSize=20;" vertex="1" parent="1">
          <mxGeometry x="610" y="640" width="80" height="80" as="geometry" />
        </mxCell>
        <mxCell id="s6YdlJrknY9Fd6n3SQEG-194" style="rounded=0;orthogonalLoop=1;jettySize=auto;html=1;exitX=1;exitY=0.5;exitDx=0;exitDy=0;entryX=-0.015;entryY=0.423;entryDx=0;entryDy=0;entryPerimeter=0;fontFamily=Times New Roman;fontSize=20;" edge="1" source="s6YdlJrknY9Fd6n3SQEG-195" target="s6YdlJrknY9Fd6n3SQEG-204" parent="1">
          <mxGeometry relative="1" as="geometry" />
        </mxCell>
        <mxCell id="s6YdlJrknY9Fd6n3SQEG-195" value="Jacobi Integral" style="rounded=0;whiteSpace=wrap;html=1;fontFamily=Times New Roman;fontSize=20;fillColor=#E6E6E6;" vertex="1" parent="1">
          <mxGeometry x="730" y="650" width="160" height="60" as="geometry" />
        </mxCell>
        <mxCell id="s6YdlJrknY9Fd6n3SQEG-196" style="edgeStyle=orthogonalEdgeStyle;rounded=0;orthogonalLoop=1;jettySize=auto;html=1;exitX=1;exitY=0.5;exitDx=0;exitDy=0;entryX=0;entryY=0.5;entryDx=0;entryDy=0;fontFamily=Times New Roman;fontSize=20;" edge="1" source="s6YdlJrknY9Fd6n3SQEG-198" target="s6YdlJrknY9Fd6n3SQEG-200" parent="1">
          <mxGeometry relative="1" as="geometry" />
        </mxCell>
        <mxCell id="s6YdlJrknY9Fd6n3SQEG-197" style="rounded=0;orthogonalLoop=1;jettySize=auto;html=1;exitX=0;exitY=0.5;exitDx=0;exitDy=0;entryX=1;entryY=1;entryDx=0;entryDy=0;fontFamily=Times New Roman;fontSize=20;endArrow=none;endFill=0;startArrow=classic;startFill=1;" edge="1" source="s6YdlJrknY9Fd6n3SQEG-198" target="s6YdlJrknY9Fd6n3SQEG-203" parent="1">
          <mxGeometry relative="1" as="geometry" />
        </mxCell>
        <mxCell id="s6YdlJrknY9Fd6n3SQEG-198" value="T&lt;sub style=&quot;font-size: 20px;&quot;&gt;M&lt;/sub&gt;" style="ellipse;whiteSpace=wrap;html=1;aspect=fixed;fontFamily=Times New Roman;fontSize=20;" vertex="1" parent="1">
          <mxGeometry x="610" y="780" width="80" height="80" as="geometry" />
        </mxCell>
        <mxCell id="s6YdlJrknY9Fd6n3SQEG-199" style="rounded=0;orthogonalLoop=1;jettySize=auto;html=1;exitX=1;exitY=0.5;exitDx=0;exitDy=0;entryX=0;entryY=1;entryDx=0;entryDy=0;fontFamily=Times New Roman;fontSize=20;" edge="1" source="s6YdlJrknY9Fd6n3SQEG-200" parent="1">
          <mxGeometry relative="1" as="geometry">
            <mxPoint x="1017.5735931288073" y="790.0049493661168" as="targetPoint" />
          </mxGeometry>
        </mxCell>
        <mxCell id="s6YdlJrknY9Fd6n3SQEG-200" value="Jacobi Integral" style="rounded=0;whiteSpace=wrap;html=1;fontFamily=Times New Roman;fontSize=20;fillColor=#E6E6E6;" vertex="1" parent="1">
          <mxGeometry x="730" y="790" width="160" height="60" as="geometry" />
        </mxCell>
        <mxCell id="s6YdlJrknY9Fd6n3SQEG-201" value="" style="endArrow=none;dashed=1;html=1;dashPattern=1 3;strokeWidth=2;rounded=0;fontFamily=Times New Roman;fontSize=20;" edge="1" parent="1">
          <mxGeometry width="50" height="50" relative="1" as="geometry">
            <mxPoint x="810.1100000000001" y="760" as="sourcePoint" />
            <mxPoint x="810.1100000000001" y="740" as="targetPoint" />
          </mxGeometry>
        </mxCell>
        <mxCell id="s6YdlJrknY9Fd6n3SQEG-202" value="" style="endArrow=none;dashed=1;html=1;dashPattern=1 3;strokeWidth=2;rounded=0;fontFamily=Times New Roman;fontSize=20;" edge="1" parent="1">
          <mxGeometry width="50" height="50" relative="1" as="geometry">
            <mxPoint x="690" y="760" as="sourcePoint" />
            <mxPoint x="690" y="740" as="targetPoint" />
          </mxGeometry>
        </mxCell>
        <mxCell id="s6YdlJrknY9Fd6n3SQEG-203" value="begin" style="ellipse;whiteSpace=wrap;html=1;fontFamily=Times New Roman;fontSize=20;fillColor=#E6E6E6;" vertex="1" parent="1">
          <mxGeometry x="440" y="560" width="120" height="280" as="geometry" />
        </mxCell>
        <mxCell id="s6YdlJrknY9Fd6n3SQEG-204" value="end" style="ellipse;whiteSpace=wrap;html=1;fontFamily=Times New Roman;fontSize=20;fillColor=#E6E6E6;" vertex="1" parent="1">
          <mxGeometry x="920" y="560" width="120" height="280" as="geometry" />
        </mxCell>
        <mxCell id="s6YdlJrknY9Fd6n3SQEG-205" value="&lt;font style=&quot;font-size: 20px;&quot;&gt;Create Threads with omp parallel&amp;nbsp;&lt;span style=&quot;background-color: initial;&quot;&gt;pragma&lt;/span&gt;&lt;/font&gt;" style="text;html=1;strokeColor=none;fillColor=none;align=center;verticalAlign=middle;whiteSpace=wrap;rounded=0;fontFamily=Times New Roman;fontSize=20;" vertex="1" parent="1">
          <mxGeometry x="510" y="520" width="480" height="30" as="geometry" />
        </mxCell>
        <mxCell id="s6YdlJrknY9Fd6n3SQEG-210" style="edgeStyle=none;rounded=0;orthogonalLoop=1;jettySize=auto;html=1;exitX=1;exitY=0;exitDx=0;exitDy=0;entryX=1;entryY=0;entryDx=0;entryDy=0;dashed=1;fontFamily=Times New Roman;fontSize=20;startArrow=none;startFill=0;endArrow=none;endFill=0;elbow=vertical;" edge="1" parent="1" source="s6YdlJrknY9Fd6n3SQEG-173" target="s6YdlJrknY9Fd6n3SQEG-208">
          <mxGeometry relative="1" as="geometry" />
        </mxCell>
        <mxCell id="s6YdlJrknY9Fd6n3SQEG-215" style="edgeStyle=orthogonalEdgeStyle;rounded=0;orthogonalLoop=1;jettySize=auto;html=1;exitX=0.5;exitY=0;exitDx=0;exitDy=0;entryX=0.5;entryY=0;entryDx=0;entryDy=0;fontFamily=Times New Roman;fontSize=20;startArrow=classic;startFill=1;endArrow=none;endFill=0;elbow=vertical;" edge="1" parent="1" source="s6YdlJrknY9Fd6n3SQEG-213" target="s6YdlJrknY9Fd6n3SQEG-214">
          <mxGeometry relative="1" as="geometry">
            <Array as="points">
              <mxPoint x="355" y="70" />
              <mxPoint x="1160" y="70" />
            </Array>
          </mxGeometry>
        </mxCell>
        <mxCell id="s6YdlJrknY9Fd6n3SQEG-213" value="begin" style="ellipse;whiteSpace=wrap;html=1;fontFamily=Times New Roman;fontSize=20;fillColor=#E6E6E6;" vertex="1" parent="1">
          <mxGeometry x="295" y="100" width="120" height="360" as="geometry" />
        </mxCell>
        <mxCell id="s6YdlJrknY9Fd6n3SQEG-214" value="begin" style="ellipse;whiteSpace=wrap;html=1;fontFamily=Times New Roman;fontSize=20;fillColor=#E6E6E6;" vertex="1" parent="1">
          <mxGeometry x="1100" y="100" width="120" height="360" as="geometry" />
        </mxCell>
        <mxCell id="s6YdlJrknY9Fd6n3SQEG-216" value="&lt;b&gt;Repeat&lt;/b&gt;" style="text;html=1;strokeColor=none;fillColor=none;align=center;verticalAlign=middle;whiteSpace=wrap;rounded=0;fontFamily=Times New Roman;fontSize=20;" vertex="1" parent="1">
          <mxGeometry x="730" y="40" width="60" height="30" as="geometry" />
        </mxCell>
        <mxCell id="s6YdlJrknY9Fd6n3SQEG-217" value="&lt;b&gt;Process Work&lt;/b&gt;" style="text;html=1;strokeColor=none;fillColor=none;align=center;verticalAlign=middle;whiteSpace=wrap;rounded=0;fontFamily=Times New Roman;fontSize=20;" vertex="1" parent="1">
          <mxGeometry x="374" y="500" width="210" height="30" as="geometry" />
        </mxCell>
      </root>
    </mxGraphModel>
  </diagram>
</mxfile>
